<svg width="40" height="40" viewBox="0 0 40 40" fill="none" xmlns="http://www.w3.org/2000/svg">
<rect width="40" height="40" rx="10" fill="#FF3E41"/>
<path fill-rule="evenodd" clip-rule="evenodd" d="M13.6911 17.7436L11.8335 14.8412L13.7988 13.5834L15.3213 15.9623H27.5372L24.0372 22.9623H16.8223L13.6911 17.7436ZM16.7434 18.2956L18.1434 20.6289H22.5951L23.7618 18.2956H16.7434Z" fill="white"/>
<path d="M19.8161 25.8789C19.8161 26.8454 19.0326 27.6289 18.0661 27.6289C17.0996 27.6289 16.3161 26.8454 16.3161 25.8789C16.3161 24.9124 17.0996 24.1289 18.0661 24.1289C19.0326 24.1289 19.8161 24.9124 19.8161 25.8789Z" fill="white"/>
<path d="M22.7328 27.6289C23.6993 27.6289 24.4828 26.8454 24.4828 25.8789C24.4828 24.9124 23.6993 24.1289 22.7328 24.1289C21.7663 24.1289 20.9828 24.9124 20.9828 25.8789C20.9828 26.8454 21.7663 27.6289 22.7328 27.6289Z" fill="white"/>
</svg>
