<svg width="48" height="48" viewBox="0 0 48 48" fill="none" xmlns="http://www.w3.org/2000/svg">
<rect width="48" height="48" rx="24" fill="#313538"/>
<path d="M28.1665 16.9165H19.8332C17.3332 16.9165 15.6665 18.1665 15.6665 21.0832V26.9165C15.6665 29.8332 17.3332 31.0832 19.8332 31.0832H28.1665C30.6665 31.0832 32.3332 29.8332 32.3332 26.9165V21.0832C32.3332 18.1665 30.6665 16.9165 28.1665 16.9165ZM28.5582 21.9915L25.9498 24.0748C25.3998 24.5165 24.6998 24.7332 23.9998 24.7332C23.2998 24.7332 22.5915 24.5165 22.0498 24.0748L19.4415 21.9915C19.1748 21.7748 19.1332 21.3748 19.3415 21.1082C19.5582 20.8415 19.9498 20.7915 20.2165 21.0082L22.8248 23.0915C23.4582 23.5998 24.5332 23.5998 25.1665 23.0915L27.7748 21.0082C28.0415 20.7915 28.4415 20.8332 28.6498 21.1082C28.8665 21.3748 28.8248 21.7748 28.5582 21.9915Z" fill="white"/>
</svg>
