<svg width="18" height="18" viewBox="0 0 18 18" fill="none" xmlns="http://www.w3.org/2000/svg">
<path fill-rule="evenodd" clip-rule="evenodd" d="M7.54986 8.47082C7.34983 8.67084 7.13562 8.84805 6.91048 9.00245C7.23389 9.42774 7.57908 9.82297 7.94673 10.1906C8.31439 10.5583 8.70962 10.9035 9.13492 11.2269C9.28931 11.0017 9.46652 10.7875 9.66655 10.5875C11.4201 8.83398 14.2631 8.83398 16.0166 10.5875C17.0551 11.626 17.5266 13.0551 17.3351 14.4053C17.319 14.4024 17.3511 14.4081 17.3351 14.4053L16.8148 17.3532C12.1409 16.5284 8.50436 14.9816 5.83004 12.3073C3.15573 9.633 1.60899 5.99642 0.78418 1.32252L3.73208 0.8023C3.72923 0.786298 3.73491 0.81834 3.73208 0.8023C5.08222 0.610733 6.51136 1.08226 7.54986 2.12075C9.30338 3.87427 9.30338 6.7173 7.54986 8.47082ZM4.41896 3.79971C4.69524 4.74853 5.01356 5.61549 5.37605 6.40837C5.39544 6.39088 5.41449 6.37281 5.43317 6.35413C6.01767 5.76962 6.01767 4.82195 5.43317 4.23744C5.15214 3.95642 4.78716 3.8105 4.41896 3.79971ZM14.3377 13.7184C14.3269 13.3502 14.181 12.9852 13.8999 12.7042C13.3154 12.1197 12.3677 12.1197 11.7832 12.7042C11.7646 12.7229 11.7465 12.7419 11.729 12.7613C12.5219 13.1238 13.3888 13.4421 14.3377 13.7184Z" fill="white"/>
</svg>
