<svg width="56" height="56" viewBox="0 0 56 56" fill="none" xmlns="http://www.w3.org/2000/svg">
<path d="M31.5 32.6667C31.5 30.7337 29.933 29.1667 28 29.1667C26.067 29.1667 24.5 30.7337 24.5 32.6667C24.5 34.5997 26.067 36.1667 28 36.1667C29.933 36.1667 31.5 34.5997 31.5 32.6667Z" fill="#CBCECF"/>
<path fill-rule="evenodd" clip-rule="evenodd" d="M28 43.1667C22.201 43.1667 17.5 38.4657 17.5 32.6667L17.5 23.3334C17.5 17.5344 22.201 12.8334 28 12.8334C33.799 12.8334 38.5 17.5344 38.5 23.3334V32.6667C38.5 38.4657 33.799 43.1667 28 43.1667ZM22.1667 32.6667L22.1667 23.3334C22.1667 20.1117 24.7783 17.5 28 17.5C31.2217 17.5 33.8333 20.1117 33.8333 23.3334V32.6667C33.8333 35.8884 31.2217 38.5 28 38.5C24.7783 38.5 22.1667 35.8884 22.1667 32.6667Z" fill="#CBCECF"/>
</svg>
